P2
10 10
255
0 14 28 42 56 70 85 99 113 127
14 28 42 56 70 85 99 113 127 141
28 42 56 70 85 99 113 127 141 155
42 56 70 85 99 113 127 141 155 170
56 70 85 99 113 127 141 155 170 184
70 85 99 113 127 141 155 170 184 198
85 99 113 127 141 155 170 184 198 212
99 113 127 141 155 170 184 198 212 226
113 127 141 155 170 184 198 212 226 240
127 141 155 170 184 198 212 226 240 255
